# xmcd
#
# Track frame offsets:
#	150
#	18612
#	34817
#	57990
#	77427
#	96662
#	112515
#	130662
#	148672
#	168012
#	185267
#	205745
#
# Disc length: 2990
#
# Revision: 3
# Processed by: cddbd v1.5.1PL0 Copyright (c) Steve Scherf et al.
# Submitted via: EasyCDDAExtractor 8.1.0.1
# Normalized: r2:DSETVAR1
#
DISCID=950bac0c
DTITLE=Various Artist - Pahat pojat
DYEAR=2002
DGENRE=Pop
TTITLE0=Rasmus - In The Shadows
TTITLE1=Jore Marjaranta - Haaveet Kaatuu
TTITLE2=Yö - Niin Paljon Me Teihin Luotettiin (2002 remix)
TTITLE3=Apulanta - Hiekka
TTITLE4=Olavi Uusivirta - Raivo Härkä
TTITLE5=Mikko Kuustonen - Ainoain
TTITLE6=Tehosekoitin - Hetken Tie On Kevyt
TTITLE7=Jore Marjaranta - Tavallista Elämää
TTITLE8=Tommi Läntinen - Se On Rock
TTITLE9=Pate Mustajärvi - Nahkurin Orret
TTITLE10=Yö - Sano Että Jäät
TTITLE11=Apocalyptica - Somewhere Around Nothing
EXTD=YEAR: 2002
EXTT0=
EXTT1=
EXTT2=
EXTT3=
EXTT4=
EXTT5=
EXTT6=
EXTT7=
EXTT8=
EXTT9=
EXTT10=
EXTT11=
PLAYORDER=
